# This file uses centimeters as units for non-parametric coordinates.

mtllib X.mtl
g default
v -0.499998 0.200000 -0.500000
v -0.499998 0.200000 0.500000
v 0.500002 0.200000 0.500000
v 0.500000 0.200000 -0.500000
v -0.500000 0.200000 2.500050
v -0.461944 0.200000 2.691373
v -0.353568 0.200000 2.853568
v -0.191373 0.200000 2.961944
v 0.000000 0.200000 3.000000
v 0.191373 0.200000 2.961944
v 0.353568 0.200000 2.853568
v 0.461944 0.200000 2.691373
v 0.500000 0.200000 2.500050
v 2.500050 0.200000 0.500000
v 2.691373 0.200000 0.461944
v 2.853568 0.200000 0.353568
v 2.961944 0.200000 0.191373
v 3.000000 0.200000 0.000000
v 2.961944 0.200000 -0.191373
v 2.853568 0.200000 -0.353568
v 2.691373 0.200000 -0.461944
v 2.500050 0.200000 -0.500000
v -0.500000 0.200000 -2.500050
v 0.500000 0.200000 -2.500050
v 0.461944 0.200000 -2.691373
v 0.353568 0.200000 -2.853568
v 0.191373 0.200000 -2.961944
v 0.000000 0.200000 -3.000000
v -0.191373 0.200000 -2.961944
v -0.353568 0.200000 -2.853568
v -0.461944 0.200000 -2.691373
v -2.500048 0.200000 -0.500000
v -2.691371 0.200000 -0.461944
v -2.853566 0.200000 -0.353568
v -2.961942 0.200000 -0.191373
v -2.999998 0.200000 -0.000000
v -2.961942 0.200000 0.191373
v -2.853566 0.200000 0.353568
v -2.691371 0.200000 0.461944
v -2.500048 0.200000 0.500000
v -0.499998 0.300000 0.500000
v -0.500000 0.300000 2.500050
v -0.461944 0.300000 2.691373
v -0.353568 0.300000 2.853568
v -0.191373 0.300000 2.961944
v -0.000000 0.300000 3.000000
v 0.191373 0.300000 2.961944
v 0.353568 0.300000 2.853568
v 0.461944 0.300000 2.691373
v 0.500000 0.300000 2.500050
v 0.500002 0.300000 0.500000
v 0.500002 0.300000 0.500000
v 2.500050 0.300000 0.500000
v 2.691373 0.300000 0.461944
v 2.853568 0.300000 0.353568
v 2.961944 0.300000 0.191373
v 3.000000 0.300000 0.000000
v 2.961944 0.300000 -0.191373
v 2.853568 0.300000 -0.353568
v 2.691373 0.300000 -0.461944
v 2.500050 0.300000 -0.500000
v 0.500000 0.300000 -0.500000
v -0.499998 0.300000 -0.500000
v -2.500048 0.300000 -0.500000
v -2.691371 0.300000 -0.461944
v -2.853566 0.300000 -0.353568
v -2.961942 0.300000 -0.191373
v -2.999998 0.300000 -0.000000
v -2.961942 0.300000 0.191373
v -2.853566 0.300000 0.353568
v -2.691371 0.300000 0.461944
v -2.500048 0.300000 0.500000
v -0.499998 0.300000 0.500000
v -0.500000 0.300000 -2.500050
v -0.499998 0.300000 -0.500000
v 0.500000 0.300000 -0.500000
v 0.500000 0.300000 -2.500050
v 0.461944 0.300000 -2.691373
v 0.353568 0.300000 -2.853568
v 0.191373 0.300000 -2.961944
v -0.000000 0.300000 -3.000000
v -0.191373 0.300000 -2.961944
v -0.353568 0.300000 -2.853568
v -0.461944 0.300000 -2.691373
vt 0.000000 0.583333
vt 0.000000 0.416667
vt 0.166667 0.416667
vt 0.166667 0.583333
vt 0.000000 0.083325
vt 0.000000 0.041662
vt 0.000000 0.000000
vt 0.041662 0.000000
vt 0.083333 0.000000
vt 0.125004 0.000000
vt 0.166667 0.000000
vt 0.166667 0.041662
vt 0.166667 0.083325
vt 0.000000 0.416667
vt 0.000000 0.083325
vt 0.000000 0.041662
vt 0.000000 0.000000
vt 0.041662 0.000000
vt 0.083333 0.000000
vt 0.125004 0.000000
vt 0.166667 0.000000
vt 0.166667 0.041662
vt 0.166667 0.083325
vt 0.166667 0.416667
vt 0.166667 0.583333
vt 0.000000 0.916675
vt 0.166667 0.916675
vt 0.166667 0.958338
vt 0.166667 1.000000
vt 0.125004 1.000000
vt 0.083333 1.000000
vt 0.041662 1.000000
vt 0.000000 1.000000
vt 0.000000 0.958338
vt 0.166667 0.916675
vt 0.166667 0.958338
vt 0.166667 1.000000
vt 0.125004 1.000000
vt 0.083333 1.000000
vt 0.041662 1.000000
vt 0.000000 1.000000
vt 0.000000 0.958338
vt 0.000000 0.916675
vt 0.000000 0.583333
vt 0.000000 0.416667
vt 0.000000 0.083325
vt 0.000000 0.041662
vt 0.000000 0.000000
vt 0.041662 0.000000
vt 0.083333 0.000000
vt 0.125004 0.000000
vt 0.166667 0.000000
vt 0.166667 0.041662
vt 0.166667 0.083325
vt 0.166667 0.416667
vt 0.000000 0.416667
vt 0.000000 0.083325
vt 0.000000 0.041662
vt 0.000000 0.000000
vt 0.041662 0.000000
vt 0.083333 0.000000
vt 0.125004 0.000000
vt 0.166667 0.000000
vt 0.166667 0.041662
vt 0.166667 0.083325
vt 0.166667 0.416667
vt 0.000000 0.916675
vt 0.000000 0.583333
vt 0.166667 0.583333
vt 0.166667 0.916675
vt 0.166667 0.958338
vt 0.166667 1.000000
vt 0.125004 1.000000
vt 0.083333 1.000000
vt 0.041662 1.000000
vt 0.000000 1.000000
vt 0.000000 0.958338
vt 0.166667 0.583333
vt 0.166667 0.916675
vt 0.166667 0.958338
vt 0.166667 1.000000
vt 0.125004 1.000000
vt 0.083333 1.000000
vt 0.041662 1.000000
vt 0.000000 1.000000
vt 0.000000 0.958338
vt 0.000000 0.916675
vt 0.000000 0.583333
vt 0.000000 0.416667
vt 0.000000 0.083325
vt 0.000000 0.041662
vt 0.000000 0.000000
vt 0.041662 0.000000
vt 0.083333 0.000000
vt 0.125004 0.000000
vt 0.166667 0.000000
vt 0.166667 0.041662
vt 0.166667 0.083325
vt 0.166667 0.416667
vt 0.000000 0.416667
vt 0.000000 0.083325
vt 0.000000 0.041662
vt 0.000000 0.000000
vt 0.041662 0.000000
vt 0.083333 0.000000
vt 0.125004 0.000000
vt 0.166667 0.000000
vt 0.166667 0.041662
vt 0.166667 0.083325
vt 0.166667 0.416667
vt 0.000000 0.916675
vt 0.000000 0.583333
vt 0.166667 0.583333
vt 0.166667 0.916675
vt 0.166667 0.958338
vt 0.166667 1.000000
vt 0.125004 1.000000
vt 0.083333 1.000000
vt 0.041662 1.000000
vt 0.000000 1.000000
vt 0.000000 0.958338
vt 0.166667 0.583333
vt 0.166667 0.916675
vt 0.166667 0.958338
vt 0.166667 1.000000
vt 0.125004 1.000000
vt 0.083333 1.000000
vt 0.041662 1.000000
vt 0.000000 1.000000
vt 0.000000 0.958338
vt 0.000000 0.916675
vt 0.000000 0.583333
vn 0.000000 1.000000 0.000000
vn 0.000000 1.000000 0.000000
vn 0.000000 1.000000 0.000000
vn 0.000000 1.000000 0.000000
vn 0.000000 1.000000 0.000000
vn 0.000000 1.000000 0.000000
vn 0.000000 1.000000 0.000000
vn 0.000000 1.000000 0.000000
vn 0.000000 1.000000 0.000000
vn 0.000000 1.000000 0.000000
vn 0.000000 1.000000 0.000000
vn 0.000000 1.000000 0.000000
vn 0.000000 1.000000 0.000000
vn 0.000000 1.000000 0.000000
vn 0.000000 1.000000 0.000000
vn 0.000000 1.000000 0.000000
vn 0.000000 1.000000 0.000000
vn 0.000000 1.000000 0.000000
vn 0.000000 1.000000 0.000000
vn 0.000000 1.000000 0.000000
vn 0.000000 1.000000 0.000000
vn 0.000000 1.000000 0.000000
vn 0.000000 1.000000 0.000000
vn 0.000000 1.000000 0.000000
vn 0.000000 1.000000 0.000000
vn 0.000000 1.000000 0.000000
vn 0.000000 1.000000 0.000000
vn 0.000000 1.000000 0.000000
vn 0.000000 1.000000 0.000000
vn 0.000000 1.000000 0.000000
vn 0.000000 1.000000 0.000000
vn 0.000000 1.000000 0.000000
vn 0.000000 1.000000 0.000000
vn 0.000000 1.000000 0.000000
vn 0.000000 1.000000 0.000000
vn 0.000000 1.000000 0.000000
vn 0.000000 1.000000 0.000000
vn 0.000000 1.000000 0.000000
vn 0.000000 1.000000 0.000000
vn 0.000000 1.000000 0.000000
vn 0.000000 1.000000 0.000000
vn 0.000000 1.000000 0.000000
vn 0.000000 1.000000 0.000000
vn 0.000000 1.000000 0.000000
vn 0.000000 1.000000 0.000000
vn 0.000000 1.000000 0.000000
vn 0.000000 1.000000 0.000000
vn 0.000000 1.000000 0.000000
vn 0.000000 -1.000000 0.000000
vn 0.000000 -1.000000 0.000000
vn 0.000000 -1.000000 0.000000
vn 0.000000 -1.000000 0.000000
vn 0.000000 -1.000000 0.000000
vn 0.000000 -1.000000 0.000000
vn 0.000000 -1.000000 0.000000
vn 0.000000 -1.000000 0.000000
vn 0.000000 -1.000000 0.000000
vn 0.000000 -1.000000 0.000000
vn 0.000000 -1.000000 0.000000
vn -0.000000 -1.000000 -0.000000
vn -0.000000 -1.000000 -0.000000
vn -0.000000 -1.000000 -0.000000
vn -0.000000 -1.000000 -0.000000
vn -0.000000 -1.000000 -0.000000
vn -0.000000 -1.000000 -0.000000
vn -0.000000 -1.000000 -0.000000
vn -0.000000 -1.000000 -0.000000
vn -0.000000 -1.000000 -0.000000
vn -0.000000 -1.000000 -0.000000
vn -0.000000 -1.000000 -0.000000
vn 0.000000 -1.000000 0.000000
vn 0.000000 -1.000000 0.000000
vn 0.000000 -1.000000 0.000000
vn 0.000000 -1.000000 0.000000
vn 0.000000 -1.000000 0.000000
vn 0.000000 -1.000000 0.000000
vn 0.000000 -1.000000 0.000000
vn 0.000000 -1.000000 0.000000
vn 0.000000 -1.000000 0.000000
vn 0.000000 -1.000000 0.000000
vn 0.000000 -1.000000 0.000000
vn 0.000000 -1.000000 0.000000
vn 0.000000 -1.000000 0.000000
vn 0.000000 -1.000000 0.000000
vn 0.000000 -1.000000 0.000000
vn 0.000000 -1.000000 0.000000
vn 0.000000 -1.000000 0.000000
vn 0.000000 -1.000000 0.000000
vn 0.000000 -1.000000 0.000000
vn 0.000000 -1.000000 0.000000
vn 0.000000 -1.000000 0.000000
vn 0.000000 -1.000000 0.000000
vn 0.000000 -1.000000 -0.000000
vn 0.000000 -1.000000 -0.000000
vn 0.000000 -1.000000 -0.000000
vn 0.000000 -1.000000 -0.000000
vn -1.000000 -0.000002 -0.000001
vn -0.999849 -0.000002 0.017363
vn -0.999849 -0.000002 0.017363
vn -1.000000 -0.000002 -0.000001
vn -0.923879 0.000000 0.382684
vn -0.923879 0.000000 0.382684
vn -0.707107 0.000000 0.707107
vn -0.707107 0.000000 0.707107
vn -0.382637 0.000000 0.923899
vn -0.382637 0.000000 0.923899
vn -0.000000 0.000000 1.000000
vn 0.000000 0.000000 1.000000
vn 0.382637 0.000000 0.923899
vn 0.382637 0.000000 0.923899
vn 0.707107 0.000000 0.707107
vn 0.707107 0.000000 0.707107
vn 0.923880 0.000000 0.382683
vn 0.923880 0.000000 0.382683
vn 0.999849 0.000002 0.017365
vn 0.999849 0.000002 0.017365
vn 1.000000 0.000002 0.000001
vn 1.000000 0.000002 0.000001
vn 0.000000 -0.000001 -1.000000
vn 0.000000 -0.000001 -1.000000
vn 0.000000 -0.000001 -1.000000
vn 0.000000 -0.000001 -1.000000
vn 0.000000 0.000000 1.000000
vn 0.017364 0.000000 0.999849
vn 0.017364 0.000000 0.999849
vn 0.000000 0.000000 1.000000
vn 0.382683 0.000000 0.923880
vn 0.382683 0.000000 0.923880
vn 0.707107 0.000000 0.707107
vn 0.707107 0.000000 0.707107
vn 0.923899 0.000000 0.382637
vn 0.923899 0.000000 0.382637
vn 1.000000 0.000000 0.000000
vn 1.000000 0.000000 0.000000
vn 0.923899 0.000000 -0.382637
vn 0.923899 0.000000 -0.382637
vn 0.707107 0.000000 -0.707107
vn 0.707107 0.000000 -0.707107
vn 0.382683 0.000000 -0.923880
vn 0.382683 0.000000 -0.923880
vn 0.017364 0.000000 -0.999849
vn 0.017364 0.000000 -0.999849
vn -0.000000 0.000000 -1.000000
vn -0.000000 0.000000 -1.000000
vn -0.000000 -0.000000 -1.000000
vn -0.017364 -0.000000 -0.999849
vn -0.017364 -0.000000 -0.999849
vn -0.000000 -0.000000 -1.000000
vn -0.382683 -0.000000 -0.923880
vn -0.382684 -0.000000 -0.923880
vn -0.707107 -0.000001 -0.707107
vn -0.707107 -0.000001 -0.707107
vn -0.923899 -0.000002 -0.382637
vn -0.923899 -0.000002 -0.382637
vn -1.000000 -0.000003 0.000000
vn -1.000000 -0.000003 0.000000
vn -0.923899 -0.000002 0.382637
vn -0.923899 -0.000002 0.382637
vn -0.707107 -0.000001 0.707107
vn -0.707107 -0.000001 0.707107
vn -0.382683 -0.000000 0.923880
vn -0.382684 -0.000000 0.923880
vn -0.017364 0.000000 0.999849
vn -0.017364 0.000000 0.999849
vn -0.000000 0.000000 1.000000
vn -0.000000 0.000000 1.000000
vn -0.999849 -0.000002 -0.017363
vn -1.000000 -0.000002 0.000001
vn -1.000000 -0.000002 0.000001
vn -0.999849 -0.000002 -0.017363
vn 0.000001 0.000000 1.000000
vn 0.000001 0.000000 1.000000
vn 0.000001 0.000000 1.000000
vn 0.000001 0.000000 1.000000
vn 1.000000 0.000001 -0.000000
vn 0.999849 0.000001 -0.017364
vn 0.999849 0.000001 -0.017364
vn 1.000000 0.000001 -0.000000
vn 0.923879 0.000000 -0.382684
vn 0.923879 0.000000 -0.382684
vn 0.707107 0.000000 -0.707107
vn 0.707107 0.000000 -0.707107
vn 0.382637 0.000000 -0.923899
vn 0.382637 0.000000 -0.923899
vn 0.000000 0.000000 -1.000000
vn 0.000000 0.000000 -1.000000
vn -0.382637 0.000000 -0.923899
vn -0.382637 0.000000 -0.923899
vn -0.707107 0.000000 -0.707107
vn -0.707107 0.000000 -0.707107
vn -0.923879 0.000000 -0.382684
vn -0.923879 0.000000 -0.382684
s off
g X
usemtl initialShadingGroup
f 41/89/1 42/90/2 43/91/3 44/92/4 45/93/5 46/94/6 47/95/7 48/96/8 49/97/9 50/98/10 51/99/11
f 52/100/12 53/101/13 54/102/14 55/103/15 56/104/16 57/105/17 58/106/18 59/107/19 60/108/20 61/109/21 62/110/22
f 74/111/23 75/112/24 76/113/25 77/114/26 78/115/27 79/116/28 80/117/29 81/118/30 82/119/31 83/120/32 84/121/33
f 63/122/34 64/123/35 65/124/36 66/125/37 67/126/38 68/127/39 69/128/40 70/129/41 71/130/42 72/131/43 73/132/44
f 52/100/45 62/110/46 63/122/47 73/132/48
f 2/45/49 3/55/50 13/54/51 12/53/52 11/52/53 10/51/54 9/50/55 8/49/56 7/48/57 6/47/58 5/46/59
f 3/56/60 4/66/61 22/65/62 21/64/63 20/63/64 19/62/65 18/61/66 17/60/67 16/59/68 15/58/69 14/57/70
f 23/67/71 31/77/72 30/76/73 29/75/74 28/74/75 27/73/76 26/72/77 25/71/78 24/70/79 4/69/80 1/68/81
f 1/78/82 2/88/83 40/87/84 39/86/85 38/85/86 37/84/87 36/83/88 35/82/89 34/81/90 33/80/91 32/79/92
f 3/56/93 2/88/94 1/78/95 4/66/96
s 1
f 2/2/97 5/5/98 42/90/99 41/89/100
f 5/5/98 6/6/101 43/91/102 42/90/99
f 6/6/101 7/7/103 44/92/104 43/91/102
f 7/7/103 8/8/105 45/93/106 44/92/104
f 8/8/105 9/9/107 46/94/108 45/93/106
f 9/9/107 10/10/109 47/95/110 46/94/108
f 10/10/109 11/11/111 48/96/112 47/95/110
f 11/11/111 12/12/113 49/97/114 48/96/112
f 12/12/113 13/13/115 50/98/116 49/97/114
f 13/13/115 3/3/117 51/99/118 50/98/116
s off
f 3/3/119 2/2/120 41/89/121 51/99/122
s 2
f 3/14/123 14/15/124 53/101/125 52/100/126
f 14/15/124 15/16/127 54/102/128 53/101/125
f 15/16/127 16/17/129 55/103/130 54/102/128
f 16/17/129 17/18/131 56/104/132 55/103/130
f 17/18/131 18/19/133 57/105/134 56/104/132
f 18/19/133 19/20/135 58/106/136 57/105/134
f 19/20/135 20/21/137 59/107/138 58/106/136
f 20/21/137 21/22/139 60/108/140 59/107/138
f 21/22/139 22/23/141 61/109/142 60/108/140
f 22/23/141 4/24/143 62/110/144 61/109/142
f 1/26/145 32/1/146 64/112/147 63/111/148
f 32/1/146 33/4/149 65/113/150 64/112/147
f 33/4/149 34/27/151 66/114/152 65/113/150
f 34/27/151 35/28/153 67/115/154 66/114/152
f 35/28/153 36/29/155 68/116/156 67/115/154
f 36/29/155 37/30/157 69/117/158 68/116/156
f 37/30/157 38/31/159 70/118/160 69/117/158
f 38/31/159 39/32/161 71/119/162 70/118/160
f 39/32/161 40/33/163 72/120/164 71/119/162
f 40/33/163 2/34/165 73/121/166 72/120/164
f 4/34/143 1/26/145 63/111/148 62/121/144
f 2/25/165 3/35/123 52/123/126 73/122/166
s 4
f 23/35/167 1/36/168 75/124/169 74/123/170
s off
f 1/36/171 4/37/172 76/125/173 75/124/174
s 4
f 4/37/175 24/38/176 77/126/177 76/125/178
f 24/38/176 25/39/179 78/127/180 77/126/177
f 25/39/179 26/40/181 79/128/182 78/127/180
f 26/40/181 27/41/183 80/129/184 79/128/182
f 27/41/183 28/42/185 81/130/186 80/129/184
f 28/42/185 29/43/187 82/131/188 81/130/186
f 29/43/187 30/44/189 83/132/190 82/131/188
f 30/24/189 31/25/191 84/122/192 83/110/190
f 31/44/191 23/14/167 74/100/170 84/132/192
